<svg xmlns="http://www.w3.org/2000/svg" width="810" height="645" viewBox="0 0 810 645" version="1"><g stroke="none" stroke-width="1" fill="none" fill-rule="evenodd"><path d="M307 622L502 622C502 622 504 457 503 456 503 456 430 388 430 388L307 388 307 622ZM296 365L440 365 518 438C523 442 527 452 527 458L527 633C527 640 522 645 515 645L296 645C289 645 284 640 284 633L284 377C284 370 289 365 296 365ZM347 588C347 583 351 578 357 578L454 578C460 578 465 583 465 588 465 594 460 599 454 599L357 599C351 599 347 594 347 588ZM347 549C347 543 351 538 357 538L454 538C460 538 465 543 465 549 465 554 460 559 454 559L357 559C351 559 347 554 347 549ZM347 510C347 505 351 500 357 500L454 500C460 500 465 505 465 510 465 516 460 521 454 521L357 521C351 521 347 516 347 510Z" fill="#000000"/><path d="M417 464C417 473 425 480 434 480L512 480 512 455 442 455 442 388 417 388 417 464Z" fill="#000000"/><path d="M711 160C741 160 765 136 765 105 765 75 741 51 711 51 680 51 656 75 656 105 656 136 680 160 711 160ZM711 169C676 169 669 149 662 149 617 147 661 149 661 149 633 148 611 170 611 197L611 232C611 252 627 268 647 268L710 268C710 268 710 268 710 268L774 268C794 268 810 252 810 232L810 197C810 170 788 148 760 149 760 149 804 147 759 149 752 149 745 169 711 169L711 169Z" fill="#000000"/><path d="M405 109C435 109 460 85 460 55 460 25 435 1 405 1 375 1 351 25 351 55 351 85 375 109 405 109ZM405 119C371 119 363 99 357 99 312 97 356 99 356 99 328 98 306 119 306 147L306 181C306 201 322 217 342 217L405 217C405 217 405 217 405 217L469 217C489 217 505 201 505 181L505 147C505 119 482 98 455 99 455 99 499 97 454 99 447 99 440 119 405 119L405 119Z" fill="#000000"/><path d="M99 160C129 160 154 136 154 105 154 75 129 51 99 51 69 51 45 75 45 105 45 136 69 160 99 160ZM99 169C65 169 57 149 51 149 6 147 50 149 50 149 22 148 0 170 0 197L0 232C0 252 16 268 36 268L99 268C99 268 99 268 99 268L163 268C183 268 199 252 199 232L199 197C199 170 176 148 149 149 149 149 193 147 148 149 141 149 134 169 99 169L99 169Z" fill="#000000"/><path d="M392 307L392 237 392 227 412 227 412 237 412 307 432 307 402 355 373 307 392 307 392 307Z" fill="#000000"/><path d="M559 325L559 255 559 245 579 245 579 255 579 325 599 325 569 372 540 325 559 325 559 325Z" fill="#000000" transform="translate(569.282168, 308.629881) rotate(-315.000000) translate(-569.282168, -308.629881) "/><path d="M231 325L231 255 231 245 251 245 251 255 251 325 270 325 241 372 212 325 231 325 231 325Z" fill="#000000" transform="translate(241.082015, 308.629881) scale(-1, 1) rotate(-315.000000) translate(-241.082015, -308.629881) "/></g></svg>